<svg width="50" height="50" viewBox="0 0 50 50" fill="none" xmlns="http://www.w3.org/2000/svg">
<path d="M35.4167 35.4166C36.2848 35.4166 37.023 35.1132 37.6313 34.5062C38.2396 33.8993 38.5431 33.1611 38.5417 32.2916C38.5403 31.4222 38.2368 30.6847 37.6313 30.0791C37.0257 29.4736 36.2875 29.1694 35.4167 29.1666C34.5459 29.1638 33.8084 29.468 33.2042 30.0791C32.6 30.6902 32.2959 31.4277 32.2917 32.2916C32.2875 33.1555 32.5917 33.8937 33.2042 34.5062C33.8167 35.1187 34.5542 35.4222 35.4167 35.4166ZM35.4167 41.6666C36.4931 41.6666 37.4827 41.4145 38.3855 40.9104C39.2882 40.4062 40.0174 39.7382 40.573 38.9062C39.8091 38.4548 38.9931 38.1076 38.125 37.8645C37.257 37.6215 36.3542 37.5 35.4167 37.5C34.4792 37.5 33.5764 37.6215 32.7084 37.8645C31.8403 38.1076 31.0243 38.4548 30.2605 38.9062C30.816 39.7395 31.5452 40.4083 32.448 40.9125C33.3507 41.4166 34.3403 41.668 35.4167 41.6666ZM35.4167 45.8333C32.5348 45.8333 30.0785 44.8173 28.048 42.7854C26.0174 40.7534 25.0014 38.2972 25 35.4166C24.9987 32.5361 26.0146 30.0798 28.048 28.0479C30.0813 26.0159 32.5375 25 35.4167 25C38.2959 25 40.7528 26.0159 42.7875 28.0479C44.8223 30.0798 45.8375 32.5361 45.8334 35.4166C45.8292 38.2972 44.8132 40.7541 42.7855 42.7875C40.7577 44.8208 38.3014 45.8361 35.4167 45.8333ZM25 45.8333C20.1737 44.618 16.1889 41.8486 13.0459 37.525C9.90282 33.2013 8.33199 28.4013 8.33337 23.125V10.4166L25 4.16663L41.6667 10.4166V22.2395C40.7639 21.7882 39.748 21.4409 38.6188 21.1979C37.4896 20.9548 36.4223 20.8333 35.4167 20.8333C31.3889 20.8333 27.9514 22.2569 25.1042 25.1041C22.257 27.9513 20.8334 31.3888 20.8334 35.4166C20.8334 37.5694 21.2417 39.5138 22.0584 41.25C22.875 42.9861 23.9077 44.4965 25.1563 45.7812C25.1216 45.7812 25.0959 45.7902 25.0792 45.8083C25.0625 45.8263 25.0362 45.8347 25 45.8333Z" fill="#111111"/>
</svg>
