<svg width="64" height="64" viewBox="0 0 64 64" fill="none" xmlns="http://www.w3.org/2000/svg">
<path d="M49.8438 46.1187C51.0898 46.7375 52.2132 47.4969 53.2139 48.3969C54.2145 49.2969 55.0641 50.3 55.7627 51.4062C56.4613 52.5125 57.0088 53.7125 57.4053 55.0062C57.8018 56.3 58 57.6312 58 59H54.375C54.375 57.5187 54.0918 56.1219 53.5254 54.8094C52.959 53.4969 52.1849 52.3531 51.2031 51.3781C50.2214 50.4031 49.0602 49.625 47.7197 49.0437C46.3792 48.4625 44.9727 48.1812 43.5 48.2C41.9896 48.2 40.583 48.4812 39.2803 49.0437C37.9775 49.6062 36.8258 50.375 35.8252 51.35C34.8245 52.325 34.041 53.4781 33.4746 54.8094C32.9082 56.1406 32.625 57.5375 32.625 59H29C29 57.6312 29.1888 56.3 29.5664 55.0062C29.944 53.7125 30.4915 52.5125 31.209 51.4062C31.9264 50.3 32.7855 49.2969 33.7861 48.3969C34.7868 47.4969 35.9102 46.7375 37.1562 46.1187C35.7402 45.1063 34.6357 43.8406 33.8428 42.3219C33.0498 40.8031 32.6439 39.1625 32.625 37.4C32.625 35.9187 32.9082 34.5219 33.4746 33.2094C34.041 31.8969 34.8151 30.7531 35.7969 29.7781C36.7786 28.8031 37.9303 28.025 39.252 27.4437C40.5736 26.8625 41.9896 26.5812 43.5 26.6C44.9915 26.6 46.3981 26.8812 47.7197 27.4437C49.0413 28.0062 50.193 28.775 51.1748 29.75C52.1566 30.725 52.9401 31.8781 53.5254 33.2094C54.1107 34.5406 54.3939 35.9375 54.375 37.4C54.375 39.1625 53.9785 40.8031 53.1855 42.3219C52.3926 43.8406 51.2786 45.1063 49.8438 46.1187ZM43.5 44.6C44.5007 44.6 45.4352 44.4125 46.3037 44.0375C47.1722 43.6625 47.9463 43.1469 48.626 42.4906C49.3057 41.8344 49.8249 41.075 50.1836 40.2125C50.5423 39.35 50.7311 38.4125 50.75 37.4C50.75 36.4062 50.5612 35.4781 50.1836 34.6156C49.806 33.7531 49.2868 32.9844 48.626 32.3094C47.9652 31.6344 47.2005 31.1187 46.332 30.7625C45.4635 30.4062 44.5195 30.2188 43.5 30.2C42.4993 30.2 41.5648 30.3875 40.6963 30.7625C39.8278 31.1375 39.0537 31.6531 38.374 32.3094C37.6943 32.9656 37.1751 33.725 36.8164 34.5875C36.4577 35.45 36.2689 36.3875 36.25 37.4C36.25 38.3937 36.4388 39.3219 36.8164 40.1844C37.194 41.0469 37.7132 41.8156 38.374 42.4906C39.0348 43.1656 39.7995 43.6812 40.668 44.0375C41.5365 44.3937 42.4805 44.5812 43.5 44.6ZM29 46.85C28.3958 47.5437 27.8483 48.2656 27.3574 49.0156C26.8665 49.7656 26.4323 50.5719 26.0547 51.4344C25.054 50.4031 23.8457 49.6062 22.4297 49.0437C21.0137 48.4812 19.5788 48.2 18.125 48.2H7.25V12.2H3.625V51.8H25.9131C25.6488 52.3812 25.4316 52.9719 25.2617 53.5719C25.0918 54.1719 24.9502 54.7812 24.8369 55.4H0V8.6H7.25V5H18.125C19.7865 5 21.3818 5.25312 22.9111 5.75937C24.4404 6.26562 25.8659 7.025 27.1875 8.0375C28.4902 7.025 29.9062 6.26562 31.4355 5.75937C32.9648 5.25312 34.5697 5 36.25 5H47.125V8.6H54.375V26.6C53.2799 25.5312 52.0716 24.6406 50.75 23.9281V12.2H47.125V22.5781C46.5208 22.4094 45.9167 22.2875 45.3125 22.2125C44.7083 22.1375 44.1042 22.1 43.5 22.1V8.6H36.25C34.9284 8.6 33.6445 8.825 32.3984 9.275C31.1523 9.725 30.0195 10.3906 29 11.2719V46.85ZM25.375 46.4844V11.2719C24.3555 10.4094 23.2227 9.75312 21.9766 9.30312C20.7305 8.85312 19.4466 8.61875 18.125 8.6H10.875V44.6H18.125C19.39 44.6 20.6361 44.7594 21.8633 45.0781C23.0905 45.3969 24.2611 45.8656 25.375 46.4844Z" fill="#111111"/>
</svg>
