<svg width="50" height="50" viewBox="0 0 50 50" fill="none" xmlns="http://www.w3.org/2000/svg">
<path d="M41.6667 35.4166C42.7717 35.4166 43.8315 34.9776 44.6129 34.1962C45.3943 33.4148 45.8333 32.355 45.8333 31.25V8.33329C45.8333 7.22822 45.3943 6.16842 44.6129 5.38701C43.8315 4.60561 42.7717 4.16663 41.6667 4.16663H19.7083C20.4375 5.43746 20.8333 6.87496 20.8333 8.33329H41.6667V31.25H22.9167V35.4166M31.25 14.5833V18.75H18.75V45.8333H14.5833V33.3333H10.4167V45.8333H6.25V29.1666H3.125V18.75C3.125 17.6449 3.56399 16.5851 4.34539 15.8037C5.12679 15.0223 6.1866 14.5833 7.29167 14.5833H31.25ZM16.6667 8.33329C16.6667 9.43836 16.2277 10.4982 15.4463 11.2796C14.6649 12.061 13.6051 12.5 12.5 12.5C11.3949 12.5 10.3351 12.061 9.55372 11.2796C8.77232 10.4982 8.33333 9.43836 8.33333 8.33329C8.33333 7.22822 8.77232 6.16842 9.55372 5.38701C10.3351 4.60561 11.3949 4.16663 12.5 4.16663C13.6051 4.16663 14.6649 4.60561 15.4463 5.38701C16.2277 6.16842 16.6667 7.22822 16.6667 8.33329Z" fill="#111111"/>
</svg>
